<svg id="Layer_1" data-name="Layer 1" xmlns="http://www.w3.org/2000/svg" viewBox="0 0 270.03 538.74"><defs><style>.cls-1{fill:#dcffe3;stroke:#000;stroke-miterlimit:10;}</style></defs><path class="cls-1" d="M1920.5,86.5c-103.55-7.16-194.34,26.71-235,86-6.69,9.76-36.22,52.82-34,104a130.42,130.42,0,0,0,11,49c7.14,16,16,26.64,23,35,10.53,12.53,20,20.35,39,36,17.86,14.72,19,14.16,34,27s25.92,23.75,32,30c6.71,6.9,15.66,16.53,30,34,18.65,22.72,31.85,40.94,42,55,22,30.55,41.51,57.78,58,81" transform="translate(-1650.88 -85.05)"/></svg>