<svg id="Layer_1" data-name="Layer 1" xmlns="http://www.w3.org/2000/svg" viewBox="0 0 499 288"><defs><style>.cls-1{fill:#fefefe;}.cls-2{fill:#ffe018;}.cls-3{fill:#e2ff5b;}.cls-4{fill:#ecf4f6;}.cls-5{fill:#ebf2f4;}.cls-6{fill:#f3fafa;}.cls-7{fill:#e9f7fb;}.cls-8{fill:#395e79;}.cls-9{font-size:16.72px;fill:#a622ff;font-family:BerlinSansFBDemi-Bold, Berlin Sans FB Demi;font-weight:700;}</style></defs><path class="cls-1" d="M659.5,238q72.25,0,144.5,0c1.67,0,2,.31,2,1.89q-.09,81.11,0,162.22c0,1.58-.33,1.89-2,1.89q-144.5-.08-289,0c-1.67,0-2-.31-2-1.89q.09-81.11,0-162.22c0-1.58.33-1.89,2-1.89Q587.25,238.08,659.5,238Zm-9.78,84,0-.18a1,1,0,0,0-1.35-.2c-3.13-.11-6.27-.39-9.38.29l-1,.1-.76.18c-4.32.23-8.47,1.39-12.73,2a2.25,2.25,0,0,1-2.76-1.46c-7.09-14.44-6-28.11,4.16-41,6.31-8,14.38-14.13,23-19.72.61-.4,1.51-.54,1.69-1.5-.39,0-.71,0-1,.06-33.29,5-55.81,36.37-48.41,67.48,3.1,13.07,10.32,23.71,21.23,32.19l.51,2.16-1.13,1.41-.35.85-.15.95c-1.15.49-1.12.95,0,1.39l1.12,1.83c0,.56-.62,1.29.6,1.51.67.11,1.23.42,1.34-.54l1,.05c.25.35.48.76,1,.64s.37-.53.38-.87l1-.72c.07.82,0,1.81,1.19.54.6-.65.71-.06.81.4l-1.59,1.3c-.68.16-1.43.22-1.69,1.11l2.26,1.2c2.6,1.66,5,1.68,7.87.11,3.26-1.82,6.14-4.16,9.5-5.81.11.09.22.18.32.28-1.95,2.88-4.8,4.85-7.71,6.76-.57.38-1.56.62-1.39,1.38s1.22,1.08,2,.94c2.85-.49,5.82-.08,8.57-1.05,1.23-.43,2.7-.7,3.24-2.13l1.92-.2.6.69.39.41c1.2,1.25,2.35,2.53,3.59,3.73a3.72,3.72,0,0,0,4,1,3.07,3.07,0,0,0,2.51-2.89c1.34,0,1-1.55,1.94-1.94l1.29,1.44c-.13,1,.27,1.5,1.36,1.45l0,.06.38.36c3.78,2.65,7,1.83,9-2.3.06,0,.18-.08.17-.11a2,2,0,0,0-.12-.34v-.93c.05,0,.16-.12.15-.14a2.46,2.46,0,0,0-.19-.32l-.08-.46a1.79,1.79,0,0,0,1.08-1.15l.89.74.59.37a.41.41,0,0,1,.38.12l.78.26a5.78,5.78,0,0,0,6.12-3.11c.06,0,.17-.07.17-.1a2.17,2.17,0,0,0-.07-.35L688,368a2,2,0,0,0,.81-1.58l.43.23.77.32c5.09.35,7.22-1.85,6.46-6.65a3.5,3.5,0,0,0,.59-2.05l1,0c.41.48,1,1,1.55.69.93-.55-.19-1.29-.06-2,19.38-16.54,24.3-40.76,15.33-61.75-4.39-10.29-16.94-24.37-21.5-24.27,8,13.32,9.91,19.62,8.54,31.79-1.06,9.46-4.86,17.68-14.49,22.33-1.4.67-1.07,1.19-.15,2a29.71,29.71,0,0,1,6,6.65c2,3.1,3.68,6.31,4.14,10-9.87-15.32-24-23.56-43.15-23.62-1.86-.41-3,.49-4,1.82Zm2.95-37.95a.57.57,0,0,0-.53.63c0,8.65,0,17.3,0,26,0,1.14.63,1.19,1.53,1.19,3.08,0,6.17-.08,9.25,0,1.56.06,2.06-.34,2-1.89-.08-8.11,0-16.23,0-24.34,0-.52.42-1.26-.5-1.56ZM647.89,301c0-2.91-.08-5.82,0-8.73.06-1.53-.33-2.18-2.11-2.09-2.92.14-5.84.1-8.76,0-1.43-.05-2,.26-2,1.75.09,6.13.07,12.25,0,18.38,0,1.16.29,1.63,1.61,1.6,3.16-.08,6.33-.11,9.48,0,1.48,0,1.75-.5,1.72-1.73C647.83,307.15,647.88,304.09,647.89,301Zm34-7.2h0c0-5.52,0-11.05,0-16.57,0-1.29-.38-1.73-1.78-1.69q-4.64.14-9.26,0c-1.39,0-1.78.38-1.78,1.68q.07,16.56,0,33.13c0,1.21.34,1.58,1.63,1.55,3-.09,6-.12,9,0,1.66.07,2.22-.34,2.18-2C681.82,304.57,681.9,299.2,681.9,293.83Zm-54.81,80c-.13-.05-.3-.18-.39-.14s-.13.23-.19.36c.13.06.3.18.4.15S627,374,627.09,373.87Z" transform="translate(-513 -238)"/><path class="cls-2" d="M698.06,358.32l-1,0a70.5,70.5,0,0,0-8.57-9.38,7,7,0,0,0-11.42,3.81c-.22,1.28-.75,1.4-1.87,1.43-3.48.11-5.73,1.59-6.75,4.62-.37,1.09-.59,1.46-1.94,1.18a6.8,6.8,0,0,0-7.59,3.7c-.63,1.36-1.13,1.81-2.81,1.33a5.47,5.47,0,0,0-6.4,2.62c-1.16,2.09-.63,4.58,1.37,6.43-.54,1.43-2,1.7-3.24,2.13-2.75,1-5.72.56-8.57,1.05-.76.14-1.79-.12-2-.94s.82-1,1.39-1.38c2.91-1.91,5.76-3.88,7.71-6.76a1.56,1.56,0,0,0,1.14-1.4,1.5,1.5,0,0,0-1.46,1.12c-3.36,1.65-6.24,4-9.5,5.81-2.83,1.57-5.27,1.55-7.87-.11l-.57-2.31,1.59-1.3c1.8-.09,2.56-1.64,3.86-2.45l.46-.4,0,0a1.58,1.58,0,0,0,1-.9l2.17-2.23a6.38,6.38,0,0,0,2.36-2.87,12.87,12.87,0,0,0-3.59,2.77l-.46.2-.31.3-.13.11-.46.35-.54.43-.61.44a6.1,6.1,0,0,0-2.31,1.44l-.53.37-2.9,1.52-1,.72-1.39.23-1-.05-1.94-1c-.38-.61-.75-1.22-1.12-1.83l0-1.39.15-.95a.76.76,0,0,0,.35-.85l1.13-1.41A93.5,93.5,0,0,0,644.72,343c1.3-1.54,2.36-2.09,4.44-1.19,3.76,1.61,7.66,2.94,11.53,4.3,2.57.9,5.14,1.93,8,1.13,3.83-1.06,6.59-3.19,7.9-6.83,1.23-3.4-.18-6.12-2.51-8.6a26.05,26.05,0,0,0-5.77-4.54,57.83,57.83,0,0,0-13.84-6.08c-1-.27-1.39-.46-.23-1.06,19.16.06,33.28,8.3,43.15,23.62-.46-3.7-2.16-6.91-4.14-10a29.71,29.71,0,0,0-6-6.65c-.92-.77-1.25-1.29.15-2,9.63-4.65,13.43-12.87,14.49-22.33,1.37-12.17-.56-18.47-8.54-31.79,4.56-.1,17.11,14,21.5,24.27,9,21,4,45.21-15.33,61.75A2.84,2.84,0,0,0,698.06,358.32Z" transform="translate(-513 -238)"/><path class="cls-3" d="M642.15,322.1l1-.1a26.1,26.1,0,0,0,9.73,0l1-.08,0,.18,1.06.26c8.33,1.77,15.87,5.07,21.88,10.89,3.67,3.55,2.85,8.25-1.56,11a8.27,8.27,0,0,1-7.44.83c-5.24-1.88-10.5-3.72-15.69-5.71-1.53-.59-2.39-.5-3.42.83a90.69,90.69,0,0,1-10.81,11.55c-3.53,3.17-7.06,6.35-11.36,8.61-10.91-8.48-18.13-19.12-21.24-32.19-7.39-31.11,15.13-62.51,48.42-67.48.31,0,.64,0,1-.06-.18,1-1.09,1.1-1.69,1.5-8.62,5.59-16.69,11.73-23,19.72-10.15,12.88-11.25,26.55-4.16,41a2.24,2.24,0,0,0,2.76,1.46c4.25-.6,8.41-1.76,12.73-2Z" transform="translate(-513 -238)"/><path class="cls-4" d="M622.38,360.33c4.31-2.26,7.83-5.44,11.36-8.61a89.28,89.28,0,0,0,10.81-11.55c1-1.33,1.9-1.42,3.42-.83,5.2,2,10.45,3.83,15.69,5.71a8.27,8.27,0,0,0,7.44-.83c4.41-2.73,5.23-7.43,1.56-11-6-5.82-13.55-9.12-21.88-10.89l-.55-.39c1-1.33,2.16-2.23,4-1.82-1.16.6-.72.79.23,1.06a57.83,57.83,0,0,1,13.84,6.08,26.05,26.05,0,0,1,5.77,4.54c2.33,2.48,3.74,5.2,2.51,8.6-1.31,3.64-4.07,5.77-7.9,6.83-2.87.8-5.44-.23-8-1.13-3.87-1.36-7.77-2.69-11.53-4.3-2.08-.9-3.14-.35-4.44,1.19a93.5,93.5,0,0,1-21.83,19.48Z" transform="translate(-513 -238)"/><path class="cls-5" d="M651.12,374c-2-1.85-2.53-4.34-1.37-6.43a5.47,5.47,0,0,1,6.4-2.62c1.68.48,2.18,0,2.81-1.33a6.8,6.8,0,0,1,7.59-3.7c1.35.28,1.57-.09,1.94-1.18,1-3,3.27-4.51,6.75-4.62,1.12,0,1.65-.15,1.87-1.43a7,7,0,0,1,11.42-3.81,70.5,70.5,0,0,1,8.57,9.38,3.5,3.5,0,0,1-.59,2.05c-2.89-3.2-5.72-6.44-8.68-9.58a5.25,5.25,0,0,0-7.17-.61,4.66,4.66,0,0,0-.44,7c2.82,3.15,5.75,6.22,8.63,9.32A2,2,0,0,1,688,368c-2.08-4-5.73-6.8-8.63-10.17a5.28,5.28,0,0,0-7.52-.83c-2.26,1.88-2.34,4.67-.15,7.14,2.44,2.76,4.92,5.5,7.38,8.24a1.79,1.79,0,0,1-1.08,1.15c-2.43-3.74-5.78-6.77-8.78-10.08a5.23,5.23,0,0,0-7.34-.71c-2.22,1.76-2.39,4.59-.37,7,1.46,1.73,3,3.41,4.49,5.11-.94.39-.6,1.92-1.94,1.94-.05-.52.1-1.15-.16-1.56a31.25,31.25,0,0,0-7.55-8.18,3.54,3.54,0,0,0-4.86,4.74,16.37,16.37,0,0,0,1.51,2.05Z" transform="translate(-513 -238)"/><path class="cls-3" d="M688.85,366.43c-2.88-3.1-5.81-6.17-8.63-9.32a4.66,4.66,0,0,1,.44-7,5.25,5.25,0,0,1,7.17.61c3,3.14,5.79,6.38,8.68,9.58.76,4.8-1.37,7-6.46,6.65l-.77-.32Z" transform="translate(-513 -238)"/><path class="cls-3" d="M666,374.83c-1.5-1.7-3-3.38-4.49-5.11-2-2.38-1.85-5.21.37-7a5.23,5.23,0,0,1,7.34.71c3,3.31,6.35,6.34,8.78,10.08l.08.46,0,.46v.93l0,.45c-2,4.13-5.2,5-9,2.3l-.38-.36,0-.06a3.23,3.23,0,0,0-1.36-1.45Z" transform="translate(-513 -238)"/><path class="cls-3" d="M679.12,372.39c-2.46-2.74-4.94-5.48-7.38-8.24-2.19-2.47-2.11-5.26.15-7.14a5.28,5.28,0,0,1,7.52.83C682.31,361.21,686,364,688,368l-.06,2.31-.1.45a5.78,5.78,0,0,1-6.12,3.11l-.78-.26a.41.41,0,0,0-.38-.12l-.59-.37Z" transform="translate(-513 -238)"/><path class="cls-3" d="M653,373.82a16.37,16.37,0,0,1-1.51-2.05,3.54,3.54,0,0,1,4.86-4.74,31.25,31.25,0,0,1,7.55,8.18c.26.41.11,1,.16,1.56a3.07,3.07,0,0,1-2.51,2.89,3.72,3.72,0,0,1-4-1c-1.24-1.2-2.39-2.48-3.59-3.73l-.39-.41Z" transform="translate(-513 -238)"/><path class="cls-6" d="M637.24,363.93c-.73.74-1.45,1.48-2.17,2.23a.88.88,0,0,0-1,.9l0,0-.46.4c-1.3.81-2.06,2.36-3.86,2.45-.1-.46-.21-1.05-.81-.4-1.18,1.27-1.12.28-1.19-.54l2.9-1.52c.13.24.29.53.61.34.09-.06,0-.46-.08-.71a6.1,6.1,0,0,1,2.31-1.44l.61-.44.54-.43.46-.35.12-.11a.77.77,0,0,0,.32-.3l.46-.2Z" transform="translate(-513 -238)"/><path class="cls-6" d="M628.17,371.23l.57,2.31-2.26-1.2C626.74,371.45,627.49,371.39,628.17,371.23Z" transform="translate(-513 -238)"/><path class="cls-7" d="M698.06,358.32a2.84,2.84,0,0,1,1.49-1.28c-.13.68,1,1.42.06,2C699.09,359.32,698.47,358.8,698.06,358.32Z" transform="translate(-513 -238)"/><path class="cls-6" d="M622.41,368.92l1.94,1c-.11,1-.67.65-1.34.54C621.79,370.21,622.42,369.48,622.41,368.92Z" transform="translate(-513 -238)"/><path class="cls-6" d="M621.26,365.7l0,1.39C620.14,366.65,620.11,366.19,621.26,365.7Z" transform="translate(-513 -238)"/><path class="cls-5" d="M667.33,376.27a3.23,3.23,0,0,1,1.36,1.45C667.6,377.77,667.2,377.24,667.33,376.27Z" transform="translate(-513 -238)"/><path class="cls-6" d="M625.34,369.94l1.39-.23c0,.34.1.76-.38.87S625.59,370.29,625.34,369.94Z" transform="translate(-513 -238)"/><path class="cls-6" d="M627.09,373.88c-.06.12-.09.32-.18.36s-.27-.09-.4-.15c.06-.13.09-.33.19-.36S627,373.82,627.09,373.88Z" transform="translate(-513 -238)"/><path class="cls-4" d="M648.75,322a1.4,1.4,0,0,1-.36-.28,1,1,0,0,1,1.35.2Z" transform="translate(-513 -238)"/><path class="cls-8" d="M650.23,322l.55.39-1.06-.26Z" transform="translate(-513 -238)"/><path class="cls-6" d="M621.76,363.9a.76.76,0,0,1-.35.85C621.53,364.47,621.65,364.18,621.76,363.9Z" transform="translate(-513 -238)"/><path class="cls-8" d="M638,322.1l-.76.18Z" transform="translate(-513 -238)"/><path class="cls-5" d="M689.28,366.66l.77.32Z" transform="translate(-513 -238)"/><path class="cls-5" d="M680,373.13l.59.37Z" transform="translate(-513 -238)"/><path class="cls-5" d="M681,373.62l.78.26Z" transform="translate(-513 -238)"/><path class="cls-5" d="M687.88,370.77l.1-.45a2.17,2.17,0,0,1,.07.35S687.94,370.74,687.88,370.77Z" transform="translate(-513 -238)"/><path class="cls-5" d="M678.16,374.46l0-.46a2.46,2.46,0,0,1,.19.32S678.21,374.41,678.16,374.46Z" transform="translate(-513 -238)"/><path class="cls-3" d="M653.64,374.51l.39.41Z" transform="translate(-513 -238)"/><path class="cls-5" d="M678.1,375.84l0-.45a2,2,0,0,1,.12.34S678.16,375.8,678.1,375.84Z" transform="translate(-513 -238)"/><path class="cls-5" d="M668.74,377.78l.38.36Z" transform="translate(-513 -238)"/><path class="cls-7" d="M637.24,363.93l-1.23-.1a12.87,12.87,0,0,1,3.59-2.77A6.38,6.38,0,0,1,637.24,363.93Z" transform="translate(-513 -238)"/><path class="cls-1" d="M646.11,367.84a1.5,1.5,0,0,1,1.46-1.12,1.56,1.56,0,0,1-1.14,1.4C646.33,368,646.22,367.93,646.11,367.84Z" transform="translate(-513 -238)"/><path class="cls-7" d="M634.1,367.06a.88.88,0,0,1,1-.9A1.58,1.58,0,0,1,634.1,367.06Z" transform="translate(-513 -238)"/><path class="cls-7" d="M631.19,367.1c0,.25.17.65.08.71-.32.19-.48-.1-.61-.34Z" transform="translate(-513 -238)"/><path class="cls-7" d="M634.11,365.22l-.61.44Z" transform="translate(-513 -238)"/><path class="cls-7" d="M635.55,364a.77.77,0,0,1-.32.3Z" transform="translate(-513 -238)"/><path class="cls-7" d="M633.62,367.48l.46-.4Z" transform="translate(-513 -238)"/><path class="cls-7" d="M635.11,364.44l-.46.35Z" transform="translate(-513 -238)"/><text class="cls-9" transform="translate(113.03 69.18) scale(1.03 1)">NyoTsong</text><text x="-513" y="-238"/></svg>