<svg id="Layer_1" data-name="Layer 1" xmlns="http://www.w3.org/2000/svg" viewBox="0 0 223.18 761"><defs><style>.cls-1{fill:#ff8e5b;}</style></defs><path class="cls-1" d="M1920,198c-74.85,22.13-113.71,62.45-131,84-27.12,33.8-58.89,93.35-41,113,10.68,11.73,35.55,5.4,45,3,54.31-13.8,78.58-68.62,87-64,5.78,3.18,2.37,33.44-16,61-32,48-76.44,38.59-102,84-11.5,20.43-18.82,51.33-7,62,23.68,21.38,116.66-45.22,118-43,1.7,2.8-159,90.11-148,122,8.88,25.79,125.77,2.81,130,21,4.72,20.32-142.41,43.81-157,107-8.88,38.46,29,101.62,222,211" transform="translate(-1696.82 -198)"/></svg>