<?xml version="1.0" standalone="no"?>
<svg xmlns:xlink="http://www.w3.org/1999/xlink" id="wave" style="transform:rotate(180deg); transition: 0.3s" viewBox="0 0 1440 490" version="1.1" xmlns="http://www.w3.org/2000/svg"><defs><linearGradient id="sw-gradient-0" x1="0" x2="0" y1="1" y2="0"><stop stop-color="rgba(192.918, 146.004, 207.614, 1)" offset="0%"/><stop stop-color="rgba(170.93, 165.096, 191.677, 1)" offset="100%"/></linearGradient></defs><path style="transform:translate(0, 0px); opacity:1" fill="url(#sw-gradient-0)" d="M0,49L48,81.7C96,114,192,180,288,187.8C384,196,480,147,576,114.3C672,82,768,65,864,122.5C960,180,1056,310,1152,334.8C1248,359,1344,278,1440,220.5C1536,163,1632,131,1728,114.3C1824,98,1920,98,2016,155.2C2112,212,2208,327,2304,383.8C2400,441,2496,441,2592,416.5C2688,392,2784,343,2880,318.5C2976,294,3072,294,3168,261.3C3264,229,3360,163,3456,187.8C3552,212,3648,327,3744,375.7C3840,425,3936,408,4032,383.8C4128,359,4224,327,4320,326.7C4416,327,4512,359,4608,343C4704,327,4800,261,4896,212.3C4992,163,5088,131,5184,122.5C5280,114,5376,131,5472,179.7C5568,229,5664,310,5760,285.8C5856,261,5952,131,6048,106.2C6144,82,6240,163,6336,179.7C6432,196,6528,147,6624,163.3C6720,180,6816,261,6864,302.2L6912,343L6912,490L6864,490C6816,490,6720,490,6624,490C6528,490,6432,490,6336,490C6240,490,6144,490,6048,490C5952,490,5856,490,5760,490C5664,490,5568,490,5472,490C5376,490,5280,490,5184,490C5088,490,4992,490,4896,490C4800,490,4704,490,4608,490C4512,490,4416,490,4320,490C4224,490,4128,490,4032,490C3936,490,3840,490,3744,490C3648,490,3552,490,3456,490C3360,490,3264,490,3168,490C3072,490,2976,490,2880,490C2784,490,2688,490,2592,490C2496,490,2400,490,2304,490C2208,490,2112,490,2016,490C1920,490,1824,490,1728,490C1632,490,1536,490,1440,490C1344,490,1248,490,1152,490C1056,490,960,490,864,490C768,490,672,490,576,490C480,490,384,490,288,490C192,490,96,490,48,490L0,490Z"/></svg>