<svg id="Layer_1" data-name="Layer 1" xmlns="http://www.w3.org/2000/svg" viewBox="0 0 288.89 247.93"><defs><style>.cls-1{fill:#84db15;}.cls-2{fill:#2ee431;}.cls-3{fill:#f3fafa;}.cls-4{fill:#ebf2f4;}.cls-5{fill:#ecf4f6;}.cls-6{fill:#fefefe;}.cls-7{fill:#e9f7fb;}.cls-8{fill:#0c0200;}</style></defs><path class="cls-1" d="M790.47,326.27l-.84,0a62.37,62.37,0,0,0-7.51-8.08c-3.45-3.09-9.21-1.13-10,3.29-.2,1.1-.66,1.2-1.64,1.23-3.05.09-5,1.37-5.91,4-.33.93-.52,1.25-1.7,1a6,6,0,0,0-6.65,3.18c-.56,1.17-1,1.56-2.47,1.15a4.82,4.82,0,0,0-5.6,2.25,4.39,4.39,0,0,0,1.2,5.54c-.47,1.23-1.76,1.47-2.84,1.84-2.41.83-5,.47-7.5.9-.67.12-1.58-.1-1.74-.81s.72-.86,1.22-1.18c2.55-1.65,5-3.35,6.75-5.84a1.32,1.32,0,0,0,1-1.2,1.3,1.3,0,0,0-1.28,1c-2.94,1.42-5.47,3.44-8.32,5a6.21,6.21,0,0,1-6.9-.09l-.5-2,1.39-1.12c1.59-.08,2.25-1.42,3.38-2.12l.41-.34h0a1.36,1.36,0,0,0,.84-.78l1.91-1.92a5.59,5.59,0,0,0,2.07-2.47,11.18,11.18,0,0,0-3.15,2.39l-.4.17-.28.26-.11.09-.4.3-.47.37-.54.38a5.31,5.31,0,0,0-2,1.24l-.46.32-2.54,1.31-.91.62-1.21.2-.87,0-1.71-.83-1-1.58,0-1.2c0-.27.09-.54.13-.81a.67.67,0,0,0,.31-.74l1-1.21a81.66,81.66,0,0,0,19.12-16.78c1.14-1.33,2.07-1.8,3.89-1,3.29,1.39,6.71,2.54,10.11,3.71,2.24.78,4.49,1.66,7,1,3.35-.91,5.77-2.74,6.92-5.88,1.08-2.93-.16-5.27-2.19-7.41a23,23,0,0,0-5.06-3.91,50.82,50.82,0,0,0-12.12-5.23c-.84-.23-1.22-.4-.21-.92,16.79.05,29.16,7.15,37.8,20.35a20.6,20.6,0,0,0-3.63-8.63,25.77,25.77,0,0,0-5.23-5.72c-.81-.66-1.1-1.11.13-1.7,8.44-4,11.76-11.07,12.7-19.23,1.2-10.48-.5-15.91-7.49-27.38,4-.09,15,12,18.84,20.91,7.86,18.07,3.55,38.94-13.43,53.18A2.48,2.48,0,0,0,790.47,326.27Z" transform="translate(-706.45 -251.07)"/><path class="cls-2" d="M738.68,297.27l.85-.07a24.86,24.86,0,0,0,8.21,0l.83-.07v.14l.89.2c7,1.33,13.37,3.8,18.44,8.18,3.08,2.66,2.39,6.2-1.32,8.25a7.7,7.7,0,0,1-6.27.62c-4.41-1.41-8.84-2.8-13.21-4.29-1.29-.44-2-.37-2.89.62a70.74,70.74,0,0,1-9.1,8.68,48.42,48.42,0,0,1-9.57,6.47c-9.19-6.37-15.27-14.36-17.89-24.18-6.23-23.37,12.74-47,40.78-50.7.27,0,.54,0,.87,0-.15.72-.91.83-1.42,1.12-7.26,4.2-14.06,8.82-19.37,14.82C720,276.68,719,287,725,297.8a1.92,1.92,0,0,0,2.32,1.1c3.59-.45,7.09-1.32,10.72-1.5Z" transform="translate(-706.45 -251.07)"/><path class="cls-2" d="M782.9,334.68c-3-3.07-6-6.11-9-9.22a4.47,4.47,0,0,1,.46-6.9,5.63,5.63,0,0,1,7.44.6c3.07,3.1,6,6.31,9,9.48.8,4.76-1.42,6.93-6.7,6.59l-.8-.33Z" transform="translate(-706.45 -251.07)"/><path class="cls-2" d="M758.65,343.23c-1.54-1.5-3.1-3-4.59-4.51-2.07-2.1-1.89-4.59.38-6.15a5.94,5.94,0,0,1,7.5.63c3.07,2.91,6.49,5.59,9,8.89l.07.41,0,.4v.82l-.06.4c-2,3.65-5.31,4.37-9.17,2l-.39-.31-.06-.06A3,3,0,0,0,760,344.5Z" transform="translate(-706.45 -251.07)"/><path class="cls-2" d="M772.81,341.22c-2.73-2.65-5.48-5.28-8.19-7.94-2.42-2.39-2.34-5.08.17-6.9a6.47,6.47,0,0,1,8.34.8c3.22,3.25,7.26,6,9.57,9.82,0,.74-.05,1.49-.07,2.23l-.11.43c-1.44,2.25-3.69,3.27-6.78,3l-.86-.25a.54.54,0,0,0-.43-.12l-.66-.36Z" transform="translate(-706.45 -251.07)"/><path class="cls-3" d="M733.16,486.8c.39,1.36.77,2.72,1.16,4.08l-4.63-2.12C730.23,487.2,731.76,487.08,733.16,486.8Z" transform="translate(-706.45 -251.07)"/><path class="cls-3" d="M721.37,482.72l4,1.72c-.22,1.68-1.37,1.15-2.74.95C720.12,485,721.41,483.71,721.37,482.72Z" transform="translate(-706.45 -251.07)"/><path class="cls-3" d="M719,477c0,.82.05,1.64.07,2.46C716.73,478.73,716.67,477.91,719,477Z" transform="translate(-706.45 -251.07)"/><path class="cls-4" d="M813.22,495.69a6.14,6.14,0,0,1,2.79,2.57C813.78,498.34,813,497.4,813.22,495.69Z" transform="translate(-706.45 -251.07)"/><path class="cls-3" d="M727.37,484.52l2.84-.39c0,.59.2,1.34-.77,1.53S727.87,485.14,727.37,484.52Z" transform="translate(-706.45 -251.07)"/><path class="cls-3" d="M731,491.47c-.12.23-.18.57-.38.64s-.53-.16-.81-.26c.12-.22.18-.57.38-.64S730.67,491.37,731,491.47Z" transform="translate(-706.45 -251.07)"/><path class="cls-5" d="M775.23,399.91a3.41,3.41,0,0,1-.72-.5,2.31,2.31,0,0,1,2.75.35Z" transform="translate(-706.45 -251.07)"/><path class="cls-3" d="M720.05,473.86a1.28,1.28,0,0,1-.72,1.51Z" transform="translate(-706.45 -251.07)"/><path class="cls-4" d="M858.11,478.74l1.57.57Z" transform="translate(-706.45 -251.07)"/><path class="cls-4" d="M839.15,490.15l1.22.65Z" transform="translate(-706.45 -251.07)"/><path class="cls-4" d="M841.15,491l1.59.47Z" transform="translate(-706.45 -251.07)"/><path class="cls-4" d="M855.24,486l.2-.8a2.75,2.75,0,0,1,.16.61C855.6,485.87,855.36,485.93,855.24,486Z" transform="translate(-706.45 -251.07)"/><path class="cls-4" d="M835.38,492.5l-.1-.81a4.12,4.12,0,0,1,.4.56S835.48,492.41,835.38,492.5Z" transform="translate(-706.45 -251.07)"/><path class="cls-4" d="M785.24,492.58l.8.73Z" transform="translate(-706.45 -251.07)"/><path class="cls-4" d="M835.25,494.94l.1-.8a2.63,2.63,0,0,1,.25.6C835.61,494.79,835.37,494.87,835.25,494.94Z" transform="translate(-706.45 -251.07)"/><path class="cls-4" d="M816.12,498.37l.77.63Z" transform="translate(-706.45 -251.07)"/><path class="cls-6" d="M769.83,480.83a3,3,0,0,1,3-2,2.86,2.86,0,0,1-2.33,2.47A8,8,0,0,0,769.83,480.83Z" transform="translate(-706.45 -251.07)"/><path class="cls-7" d="M745.28,479.44c.07-1,.73-1.54,2-1.59A3,3,0,0,1,745.28,479.44Z" transform="translate(-706.45 -251.07)"/><path class="cls-7" d="M739.34,479.52c.06.43.35,1.14.15,1.25-.65.34-1-.18-1.24-.61Z" transform="translate(-706.45 -251.07)"/><path class="cls-7" d="M744.29,480.18l1-.7Z" transform="translate(-706.45 -251.07)"/><path class="cls-8" d="M813.48,313.56V282.4h3.66c5,7.48,16.7,24.88,18.71,28.26h0c-.28-4.49-.23-9.08-.23-14.15V282.4h2.52v31.16H834.8c-4.76-7.21-16.65-25.33-18.94-28.76h0c.23,4.1.18,8.64.18,14.29v14.47Z" transform="translate(-706.45 -251.07)"/><path class="cls-8" d="M845.69,291.3c4.62,12.73,6.64,18,7.41,20.39h0c.91-2.72,2.74-7.88,7.18-20.39h2.38l-8.6,23.55c-2.42,6.58-4.07,8-8.19,8a15.47,15.47,0,0,1-2.1-.13v-2.23a15.15,15.15,0,0,0,2.06.14c3.29,0,4.34-1.56,6-6.14l-8.73-23.24Z" transform="translate(-706.45 -251.07)"/><path class="cls-8" d="M885.86,302.38c0,6.19-3.52,11.71-10.34,11.71-6.18,0-10-4.94-10-11.66,0-6.37,3.62-11.66,10.25-11.66C881.83,290.77,885.86,295.4,885.86,302.38Zm-17.93.05c0,5.3,2.92,9.57,7.77,9.57s7.73-4,7.73-9.57c0-5.25-2.74-9.57-7.82-9.57S867.93,297.09,867.93,302.43Z" transform="translate(-706.45 -251.07)"/><path class="cls-8" d="M895.15,284.62H884.4V282.4h24.06v2.22h-10.8v28.94h-2.51Z" transform="translate(-706.45 -251.07)"/><path class="cls-8" d="M908.19,307.41c.78,2.9,2.88,4.63,6.49,4.63,4.07,0,5.72-1.82,5.72-4.31s-1.1-3.79-6.22-5c-5.9-1.38-7.36-3.12-7.36-6.05s2.37-5.92,7.54-5.92,7.64,3.07,8,6.23h-2.29c-.41-1.87-1.92-4.19-5.81-4.19s-5.12,1.92-5.12,3.7c0,2.05,1.1,3.07,5.62,4.14,6.46,1.51,8.06,3.56,8.06,6.9,0,4.05-3.39,6.54-8.19,6.54-5.22,0-8.14-2.67-8.79-6.68Z" transform="translate(-706.45 -251.07)"/><path class="cls-8" d="M947,302.38c0,6.19-3.53,11.71-10.34,11.71-6.18,0-10-4.94-10-11.66,0-6.37,3.61-11.66,10.25-11.66C943,290.77,947,295.4,947,302.38Zm-17.94.05c0,5.3,2.93,9.57,7.78,9.57s7.73-4,7.73-9.57c0-5.25-2.74-9.57-7.82-9.57S929.09,297.09,929.09,302.43Z" transform="translate(-706.45 -251.07)"/><path class="cls-8" d="M952.7,296.91c0-2,0-3.83,0-5.61h2.24c.09.71.13,3.61.09,4.23,1-2.27,2.88-4.76,7.59-4.76,4.07,0,7.69,2.22,7.69,8.36v14.43H968V299.49c0-4-1.69-6.54-5.67-6.54-5.45,0-7.32,4.4-7.32,9.26v11.35H952.7Z" transform="translate(-706.45 -251.07)"/><path class="cls-8" d="M995.25,312c0,7.12-3.25,10.86-9.88,10.86-6,0-8.42-3.25-9-6.63h2.33c.83,3.07,3.43,4.54,6.73,4.54,5.95,0,7.59-3.74,7.59-9.39V309.1c-1.23,2.9-3.47,4.46-7.64,4.46-5.35,0-9.47-4.23-9.47-11.13,0-7.48,4.39-11.66,9.79-11.66,4.67,0,6.68,2.13,7.32,3.91.05-1.29.09-2.84.14-3.38h2.15c0,.8-.09,4.32-.09,6.46Zm-16.88-9.7c0,5.3,2.88,9.12,7.27,9.12,5.72,0,7.46-3.69,7.46-9.48s-1.83-9.12-7.32-9.12C980.52,292.86,978.37,297.27,978.37,302.34Z" transform="translate(-706.45 -251.07)"/></svg>