<svg id="Layer_1" data-name="Layer 1" xmlns="http://www.w3.org/2000/svg" viewBox="0 0 122.37 786.64"><defs><style>.cls-1{fill:#ff724f;stroke:#000;stroke-miterlimit:10;}</style></defs><path class="cls-1" d="M-.5,129.5a493.09,493.09,0,0,1,69,100c12.66,24.32,34.75,67.55,45,127,5.14,29.79,6.29,57.79,7,75,.76,18.54.51,36.69,0,73-.4,28.54-.65,45-2,68-1.29,22-2.15,36.68-5,57a574.78,574.78,0,0,1-13,64,602.55,602.55,0,0,1-21,65c-5.26,13.6-4.51,10.21-25,57-16.21,37-18.19,42.61-25,55a315.89,315.89,0,0,1-30,45" transform="translate(0.89 -129.17)"/></svg>