<svg id="Layer_1" data-name="Layer 1" xmlns="http://www.w3.org/2000/svg" viewBox="0 0 207.97 841.2"><defs><style>.cls-1{fill:#8fffa1;}</style></defs><path class="cls-1" d="M-.5,204.5c26.55-20.25,54.3-49.4,62-89,7.82-40.2-9.19-69.8-2-73,10.58-4.71,66.08,51.1,59,110-5.37,44.68-45.9,84.14-55,93-15.85,15.44-28.91,23.09-27,27,3.11,6.37,44.66,0,77-23,48.51-34.57,51.61-89.18,66-88,14.81,1.21,32.3,60.77,27,127-14.34,179.12-187.07,303.69-168,325,9.6,10.73,55.25-18.77,62-9,9.25,13.39-81.67,61.2-84,129-2.22,64.6,77.46,104.92,63,134-5.47,11-24.23,20-80,14" transform="translate(0.5 -42.22)"/></svg>